<svg width="232" height="56" fill="none" xmlns="http://www.w3.org/2000/svg"><g clip-path="url(#clip0_120_1417)"><path d="M205.128 55.229h-.18l-71.517-5.174-87.946 4.04-.09-.046-43.882-26.73.675-.317 59.41-25.686h.045l68.412 3.994 79.529-2.27.135.137 20.299 24.188-.225.272-24.665 27.592zm-71.652-5.945l71.337 5.173 24.215-27.092-19.759-23.508-79.214 2.27-68.322-3.994L3.178 27.455l42.487 25.868 87.811-4.04z" fill="url(#paint0_linear_120_1417)"/><path d="M205.443 55.546l-.676-.454-24.394-16.019-46.223 10.71.405.272-.765-.136v.318l-.405-.273-.135.091v-.09l-1.44.317.81-.454-61.3-10.437-26.33 14.93.27-.771 5.49-17.654L.433 27.365l55.9-9.485 5.175-16.655.36.227 18.499 12.344L129.2 5.491l-.72-.499 1.26.272v-.09l.225.136.315-.182v.227l1.036-.182-.45.273 65.351 9.076h.045l.18.045 13.007-11.526.45.499-12.512 11.073h.405l-.45.272 32.271 12.207.18.046.36.136.495.09-.135.046.09.046-1.035.272-28.625 6.625 4.501 21.193zm-24.215-16.61l23.224 15.249-4.14-19.696-19.084 4.448zM51.381 36.033l-5.266 16.973 24.169-13.75-18.903-3.223zm79.033-29.679l3.331 42.795 33.621-18.561-36.952-24.234zM72.219 38.937l59.771 10.165-35.692-23.87L72.22 38.937zm24.71-14.068L133.07 49.01l-3.331-42.794-32.81 18.652zm71.067 6.126L135.68 48.83l43.973-10.21-11.657-7.625zM51.561 35.397l19.623 3.358 24.484-13.932-15.482-10.346-23.36 3.948-5.265 16.972zm117.065-4.765l11.882 7.76 19.714-4.583-2.746-13.115-7.741-1.68-21.109 11.618zM4.302 27.365l46.629 7.941 5.175-16.745-51.804 8.804zm193.804-6.49l2.701 12.843 27.185-6.308-29.886-6.535zM131.675 6.4l36.321 23.825 20.704-11.39L131.675 6.4zm66.296 13.75l27.275 5.945-28.31-10.71 1.035 4.765zm-116.84-5.81l15.213 10.166 31.955-18.153-47.168 7.987zm109.414 4.22l6.751 1.453-.99-4.629-5.761 3.177zM138.336 7.17l51.219 11.164 5.941-3.268-3.826-.544-53.334-7.352zM61.867 2.224l-4.815 15.52 22.369-3.812L61.867 2.224z" fill="url(#paint1_linear_120_1417)"/><path d="M130.055 6.853a1.13 1.13 0 001.125-1.135 1.13 1.13 0 00-1.125-1.135 1.13 1.13 0 00-1.125 1.135 1.13 1.13 0 001.125 1.135zM45.575 55.41c.945 0 1.71-.772 1.71-1.724 0-.953-.765-1.725-1.71-1.725-.944 0-1.71.772-1.71 1.725 0 .952.766 1.724 1.71 1.724zm159.373.59a1.13 1.13 0 001.126-1.135 1.13 1.13 0 00-1.126-1.134 1.13 1.13 0 00-1.125 1.134A1.13 1.13 0 00204.948 56zm24.575-26.91c.944 0 1.71-.773 1.71-1.725 0-.953-.766-1.725-1.71-1.725-.945 0-1.711.772-1.711 1.725 0 .952.766 1.724 1.711 1.724zM209.449 5.491a2.034 2.034 0 002.026-2.042 2.034 2.034 0 00-2.026-2.042 2.034 2.034 0 00-2.025 2.042c0 1.128.907 2.042 2.025 2.042zm-75.973 46.516a2.304 2.304 0 002.295-2.315 2.304 2.304 0 00-2.295-2.314 2.304 2.304 0 00-2.295 2.314 2.304 2.304 0 002.295 2.315zM2.368 29.68a2.305 2.305 0 002.295-2.315 2.305 2.305 0 00-2.295-2.315 2.305 2.305 0 00-2.296 2.315 2.305 2.305 0 002.296 2.314zm59.32-26.231c.944 0 1.71-.772 1.71-1.725 0-.952-.766-1.724-1.71-1.724-.945 0-1.71.772-1.71 1.724 0 .953.765 1.725 1.71 1.725zM31.128 14.84c1.575.726 2.745 1.724 3.6 3.04.856 1.316 1.26 2.86 1.26 4.629 0 1.77-.404 3.313-1.26 4.629-.855 1.316-2.025 2.314-3.6 3.04-1.575.681-3.376 1.044-5.491 1.044h-4.86v6.626h-5.492V13.796h10.307c2.115 0 3.96.318 5.536 1.044zm-2.025 10.755c.855-.726 1.305-1.725 1.305-3.086 0-1.361-.45-2.405-1.305-3.131-.856-.726-2.116-1.09-3.781-1.09h-4.5v8.35h4.5c1.62.046 2.88-.317 3.78-1.043zm19.623 6.943H45.44v5.31h-5.4V18.062h8.911c2.7 0 4.86.635 6.436 1.951 1.575 1.316 2.386 3.086 2.386 5.355 0 1.452-.36 2.678-1.036 3.767-.675 1.043-1.665 1.906-2.925 2.496l4.366 6.217h-5.806l-3.646-5.31zm2.7-9.439c-.63-.545-1.575-.771-2.835-.771h-3.15v6.126h3.15c1.26 0 2.205-.272 2.835-.772.63-.544.946-1.27.946-2.269 0-1.043-.315-1.815-.946-2.314zM65.92 36.895a9.577 9.577 0 01-3.916-3.676c-.945-1.543-1.44-3.313-1.44-5.264 0-1.952.495-3.721 1.44-5.264a9.577 9.577 0 013.916-3.676c1.665-.863 3.556-1.316 5.626-1.316 2.07 0 3.96.453 5.626 1.316 1.62.817 2.97 2.133 3.916 3.675.945 1.589 1.44 3.313 1.44 5.265 0 1.951-.495 3.721-1.44 5.264a10.212 10.212 0 01-3.916 3.676c-1.665.862-3.556 1.316-5.626 1.316-2.07 0-3.96-.454-5.626-1.316zm8.507-3.858a5.178 5.178 0 001.98-2.087c.495-.908.72-1.951.72-2.995 0-1.135-.225-2.133-.72-2.995-.45-.863-1.17-1.589-1.98-2.088a5.743 5.743 0 00-5.672 0c-.855.5-1.53 1.225-2.025 2.088-.495.862-.72 1.906-.72 2.995 0 1.044.225 2.042.72 2.995.45.862 1.17 1.588 2.025 2.087 1.71.999 3.871.999 5.671 0zm11.972-14.975h9.226c2.206 0 4.186.408 5.851 1.18a9.078 9.078 0 013.916 3.448c.9 1.498 1.395 3.223 1.395 5.265 0 1.997-.45 3.721-1.395 5.218-.9 1.498-2.205 2.633-3.916 3.45-1.665.816-3.645 1.225-5.85 1.225h-9.227V18.062zm9.046 15.52c1.8 0 3.24-.5 4.276-1.452 1.035-.953 1.575-2.36 1.575-4.13s-.54-3.177-1.575-4.175c-1.035-.998-2.475-1.497-4.276-1.497h-3.69v11.254h3.69zm17.418 2.269c-1.62-1.588-2.43-3.767-2.43-6.535V18.062h5.401v11.073c0 1.543.315 2.677.99 3.449.675.771 1.665 1.18 2.97 1.18 1.261 0 2.251-.409 2.881-1.18.675-.772.99-1.952.99-3.45V18.063h5.311v11.254c0 2.768-.81 4.947-2.43 6.535-1.621 1.588-3.916 2.36-6.842 2.36-2.925 0-5.22-.772-6.841-2.36zm25.025 1.044a9.572 9.572 0 01-3.916-3.676c-.945-1.543-1.44-3.313-1.44-5.264 0-1.952.495-3.721 1.44-5.264a10.207 10.207 0 013.916-3.676c1.665-.863 3.51-1.316 5.581-1.316 1.89 0 3.51.272 4.906.862 1.395.59 2.565 1.497 3.555 2.768l-3.465 3.177c-1.306-1.589-2.881-2.36-4.771-2.36-1.666 0-3.016.544-4.096 1.634-1.08 1.089-1.62 2.496-1.62 4.22 0 1.135.225 2.178.72 3.04a4.9 4.9 0 002.025 2.043c.9.499 1.936.726 2.971.726 1.89 0 3.465-.772 4.771-2.36l3.465 3.177a8.737 8.737 0 01-3.555 2.723c-1.396.59-3.016.862-4.906.862-2.026 0-3.916-.454-5.581-1.316zm21.108-14.613h-6.166v-4.22h17.733v4.22h-6.166v15.52h-5.401v-15.52zm18.139-6.308v9.44h12.332v2.178h-12.332v10.21h-2.521V13.751h16.338v2.178l-13.817.045zm18.453 2.45h2.43v19.424h-2.43V18.425zm12.962 2.043h-6.796v-2.042h16.023v2.042h-6.797v17.38h-2.43v-17.38zm-13.277-6.036c-.405.863 0 1.906.855 2.27.855.408 1.89 0 2.25-.863.405-.862 0-1.906-.855-2.269-.855-.408-1.89-.045-2.25.862z" fill="#1E959B"/></g><defs><linearGradient id="paint0_linear_120_1417" x1="1.513" y1="28.291" x2="230.015" y2="28.291" gradientUnits="userSpaceOnUse"><stop stop-color="#AFDBDE"/><stop offset="1" stop-color="#C7E5E7"/></linearGradient><linearGradient id="paint1_linear_120_1417" x1=".41" y1="28.386" x2="230.626" y2="28.386" gradientUnits="userSpaceOnUse"><stop stop-color="#AFDBDE"/><stop offset="1" stop-color="#C7E5E7"/></linearGradient><clipPath id="clip0_120_1417"><path fill="#fff" transform="translate(.072)" d="M0 0h231.161v56H0z"/></clipPath></defs></svg>