<svg width="47" height="35" fill="none" xmlns="http://www.w3.org/2000/svg"><g clip-path="url(#clip0_120_1458)" fill="#1E959B"><path d="M30.519 17.956l13.225 8.355V9.248l-13.225 8.708zM4.514 9.248v17.063l13.225-8.355L4.514 9.248zM41.291 4.28H6.965c-1.223 0-2.194.91-2.378 2.084L24.128 19.23 43.67 6.364c-.184-1.173-1.155-2.085-2.379-2.085zM28.272 19.436l-3.47 2.284a1.226 1.226 0 01-1.348 0l-3.47-2.286-15.392 9.73c.189 1.163 1.155 2.067 2.373 2.067h34.326c1.219 0 2.185-.904 2.374-2.068l-15.393-9.727z"/></g><defs><clipPath id="clip0_120_1458"><path fill="#fff" transform="translate(.604)" d="M0 0h46.322v35H0z"/></clipPath></defs></svg>