<svg width="31" height="35" fill="none" xmlns="http://www.w3.org/2000/svg"><path fill-rule="evenodd" clip-rule="evenodd" d="M30.208 5.54c0 .701-.223 1.411-.787 1.827a4.446 4.446 0 01-2.647.868h-2.15a3 3 0 01-3-3v-2.49c0-.514.087-1.008.247-1.468C22.175.406 23.108 0 24.03 0h3.177a3 3 0 013 3v2.54zm-3.434 3.382c1.453 0 3.434.995 3.434 2.448V32a3 3 0 01-3 3H3.678a3 3 0 01-3-3V3a3 3 0 013-3h15.156c1.257 0 2.103 1.489 2.103 2.745v3.177a3 3 0 003 3h2.837zM2.737 4.804c0-.38.307-.686.686-.686h13.735a.687.687 0 110 1.372H3.423a.687.687 0 01-.686-.686zm0 3.431c0-.379.307-.686.686-.686h13.735a.687.687 0 110 1.373H3.423a.687.687 0 01-.686-.687zm.686 2.745a.687.687 0 100 1.373H27.46a.686.686 0 100-1.373H3.423zm-.686 4.118c0-.379.307-.686.686-.686H27.46a.686.686 0 110 1.372H3.423a.687.687 0 01-.686-.686zm.686 2.745a.686.686 0 100 1.373H27.46a.686.686 0 100-1.373H3.423zm-.686 4.118c0-.38.307-.686.686-.686H27.46a.686.686 0 110 1.372H3.423a.687.687 0 01-.686-.686zm.686 2.745a.687.687 0 100 1.372H27.46a.686.686 0 100-1.372H3.423zm-.686 4.118c0-.38.307-.687.686-.687H27.46a.686.686 0 110 1.373H3.423a.686.686 0 01-.686-.686zm.686 2.745a.686.686 0 100 1.372H27.46a.686.686 0 100-1.372H3.423z" fill="#F8FAFD"/></svg>